<svg xmlns="http://www.w3.org/2000/svg" xmlns:xlink="http://www.w3.org/1999/xlink" version="1.1" id="Layer_1" x="0px" y="0px" width="500px" height="500px" viewBox="0 0 500 500" enable-background="new 0 0 500 500" xml:space="preserve">
  <path d="M370.116 281.205c-7.06-5.194-11.369-10.973-12.947-17.324 -1.56-6.362 1.414-15.766 8.934-28.215 8.076-13.362 15.587-20.417 22.532-21.169 8.127-0.652 18.022 2.54 29.679 9.59 11.665 7.045 18.337 14.164 20.006 21.365 1.678 7.196-1.305 17.134-8.975 29.819 -3.416 5.65-6.175 9.714-8.272 12.158 -13.617 18.962-29.865 32.41-48.731 40.336 -18.848 7.93-36.085 7.169-51.708-2.267 -1.592-0.962-2.285-3.005-2.098-6.143 0.2-3.119 1.418-6.558 3.675-10.288 2.257-3.744 4.588-6.435 6.973-8.086 2.386-1.641 4.306-2.262 5.751-1.847 1.455 0.411 2.554 0.767 3.297 1.067 0.757 0.292 2.339 0.479 4.771 0.552 2.426 0.077 4.86-0.383 7.318-1.368C356.914 297.184 363.499 291.123 370.116 281.205z"/>
  <path d="M130.25 129.58c7.201 4.998 11.67 10.657 13.421 16.969 1.733 6.307-0.971 15.792-8.149 28.452 -7.703 13.581-15.017 20.845-21.935 21.78 -8.108 0.88-18.082-2.047-29.934-8.76 -11.852-6.722-18.725-13.649-20.599-20.804 -1.87-7.151 0.839-17.161 8.149-30.052 3.261-5.751 5.906-9.887 7.935-12.386 13.088-19.336 28.949-33.231 47.582-41.677 18.629-8.441 35.885-8.172 51.764 0.839 1.61 0.912 2.367 2.932 2.257 6.074 -0.105 3.124-1.227 6.599-3.384 10.388 -2.152 3.799-4.405 6.562-6.745 8.272 -2.339 1.715-4.241 2.38-5.696 2.011 -1.473-0.374-2.577-0.698-3.333-0.976 -0.752-0.273-2.339-0.415-4.775-0.419 -2.431-0.009-4.852 0.52-7.278 1.573C143 113.245 136.584 119.483 130.25 129.58z"/>
  <path d="M215.312 289.683l0.397-3.174c0-11.374 3.233-20.371 9.722-26.988 6.48-6.607 13.553-10.977 21.233-13.097 7.67-2.111 14.744-5.687 21.228-10.712 6.48-5.025 9.727-11.838 9.727-20.439 0-8.596-2.448-15.282-7.342-20.042 -4.902-4.761-12.244-7.142-22.026-7.142 -9.791 0-17.005 1.523-21.629 4.561 -4.633 3.046-7.479 6.152-8.532 9.326l-1.19 4.766c-2.385 6.881-5.162 12.103-8.336 15.674 -3.174 3.575-7.278 5.358-12.304 5.358 -5.03 0-11.643-1.587-19.842-4.761 -15.875-6.083-23.814-13.626-23.814-22.624 0-3.968 0.793-7.999 2.385-12.103 1.587-4.1 2.905-7.538 3.967-10.32 1.053-2.777 3.899-7.602 8.532-14.483 4.625-6.877 9.923-12.896 15.875-18.059 5.951-5.158 14.347-9.919 25.2-14.288 10.844-4.364 22.883-6.548 36.113-6.548 28.041 0 50.929 8.997 68.66 26.987 17.721 17.995 26.591 38.895 26.591 62.704 0 11.378-2.052 21.898-6.151 31.553 -4.104 9.658-9.066 17.265-14.885 22.819 -11.643 11.113-22.492 18.523-32.543 22.223L280 292.856c0 4.505-0.2 7.939-0.598 10.319 -0.396 2.381-1.586 4.962-3.57 7.739 -1.983 2.777-5.295 4.761-9.923 5.956 -4.629 1.19-10.78 1.783-18.451 1.783 -7.68 0-13.831-0.657-18.456-1.984 -4.633-1.322-7.875-3.57-9.722-6.744 -1.856-3.179-2.978-6.016-3.375-8.532C215.509 298.881 215.312 294.981 215.312 289.683zM213.721 360.521c2.116-4.095 5.887-7.072 11.314-8.929 5.417-1.847 13.95-2.777 25.597-2.777 11.638 0 20.042 2.581 25.2 7.739 5.158 5.157 7.738 15.149 7.738 29.965 0 10.585-1.326 18.451-3.967 23.613 -2.649 5.158-6.686 8.602-12.107 10.315 -5.422 1.724-13.827 2.581-25.2 2.581 -11.378 0-20.106-2.777-26.19-8.336 -4.505-4.492-6.749-12.162-6.749-23.016v-6.348c0-6.084 0.201-10.717 0.597-13.891C210.351 368.261 211.601 364.631 213.721 360.521z"/>
</svg>
